<svg width="184" height="37" viewBox="0 0 184 37" fill="none" xmlns="http://www.w3.org/2000/svg">
<g clip-path="url(#clip0_916_1674)">
<path d="M38.4593 30.647V13.3752H34.0414V8.72469H43.7143V12.0637C46.8456 9.58348 49.918 8.34336 52.9315 8.34336C54.2838 8.26059 55.6264 8.61948 56.7571 9.36598C57.8877 10.1125 58.7452 11.2061 59.2003 12.4823C62.6293 9.71679 65.8381 8.33406 68.8268 8.33406C70.3234 8.26882 71.8039 8.66492 73.068 9.46877C74.1123 10.1504 74.8982 11.1623 75.3002 12.3428C75.7469 14.019 75.9413 15.7526 75.8769 17.4862V30.647H80.5273V35.2974H70.687V18.4255C70.7165 17.3365 70.648 16.247 70.4823 15.1702C70.3441 14.5369 69.9721 13.9789 69.4406 13.6077C68.8522 13.1897 68.1438 12.9743 67.4223 12.9938C65.1901 12.9938 62.6572 14.1347 59.8235 16.4166V30.647H64.3809V35.2974H54.5778V17.9233C54.6729 16.6226 54.4125 15.3205 53.8244 14.1564C53.539 13.7537 53.1519 13.4339 52.7025 13.2297C52.2532 13.0255 51.7577 12.9441 51.2666 12.9938C49.3042 12.9938 46.765 14.1378 43.6678 16.4166V30.647H48.3183V35.2974H33.7158V30.647H38.4593Z" fill="#76777A"/>
<path d="M109.872 23.3736H87.5495C87.7911 25.638 88.8217 27.7452 90.4607 29.3262C92.1351 30.8695 94.3515 31.6886 96.6272 31.6049C98.3196 31.6537 99.9972 31.2774 101.507 30.5105C103.016 29.7436 104.309 28.6105 105.268 27.2149L109.872 29.2425C108.459 31.489 106.432 33.2836 104.031 34.4138C101.682 35.5277 99.1147 36.1029 96.5155 36.0973C92.6932 36.1823 88.9784 34.8278 86.1078 32.3025C84.6757 31.0232 83.5457 29.4417 82.7993 27.6724C82.053 25.9031 81.709 23.99 81.7922 22.0715C81.7353 20.1905 82.0819 18.3191 82.8086 16.5833C83.5354 14.8474 84.6255 13.2873 86.0055 12.0079C88.5793 9.46725 92.0527 8.04647 95.6692 8.05503C99.2698 8.06965 102.732 9.44515 105.361 11.9056C108.256 14.4479 109.76 18.2705 109.872 23.3736ZM104.496 19.5882C104.084 17.6385 103.069 15.868 101.594 14.5285C100.831 13.7764 99.925 13.1842 98.93 12.7866C97.935 12.3889 96.8707 12.1937 95.7994 12.2125C93.8177 12.1692 91.8979 12.9037 90.4514 14.2587C88.9553 15.6435 87.994 17.5103 87.7355 19.5324L104.496 19.5882Z" fill="#76777A"/>
<path d="M116.262 30.6468V5.12508H112.541V0.493225H121.517V30.6468H124.632V35.2972H112.541V30.6468H116.262Z" fill="#76777A"/>
<path d="M130.566 30.6468V13.375H127.19V8.72453H135.793V30.6468H139.904V35.2972H127.19V30.6468H130.566ZM129.831 3.2463C129.833 2.83696 129.916 2.432 130.075 2.05511C130.235 1.67821 130.468 1.33695 130.762 1.05128C131.049 0.747957 131.397 0.508431 131.784 0.348211C132.17 0.18799 132.585 0.110647 133.003 0.121189C133.417 0.119306 133.827 0.200674 134.209 0.360454C134.591 0.520234 134.937 0.755165 135.226 1.05128C135.527 1.33649 135.766 1.68158 135.926 2.0644C136.086 2.44722 136.165 2.85931 136.156 3.2742C136.165 3.69049 136.087 4.10401 135.926 4.48836C135.766 4.87271 135.528 5.21944 135.226 5.50642C134.938 5.80382 134.592 6.03961 134.21 6.19948C133.828 6.35936 133.417 6.43999 133.003 6.43651C132.587 6.44517 132.173 6.36693 131.789 6.20678C131.405 6.04664 131.058 5.8081 130.771 5.50642C130.467 5.21462 130.227 4.86327 130.065 4.47437C129.904 4.08547 129.824 3.66739 129.831 3.2463Z" fill="#76777A"/>
<path d="M140.797 13.375V8.72455H144.248V3.24631H149.466V8.74315H154.395V13.3936H149.466V26.2661C149.379 27.5499 149.492 28.8395 149.801 30.0887C150.033 30.5724 150.6 30.8142 151.521 30.8142C152.496 30.8113 153.461 30.6251 154.367 30.2655V35.0089C153.085 35.4758 151.732 35.718 150.368 35.7251C148.999 35.7877 147.645 35.4167 146.499 34.6648C145.569 34.0487 144.905 33.1059 144.639 32.0233C144.317 30.2129 144.186 28.3736 144.248 26.5358V13.375H140.797Z" fill="#76777A"/>
<path d="M184 30.6469V35.2973H174.857V32.0513C173.769 33.204 172.462 34.127 171.011 34.766C169.561 35.405 167.997 35.7469 166.412 35.7717C164.093 35.8049 161.848 34.9611 160.125 33.4093C159.257 32.666 158.566 31.7383 158.103 30.694C157.639 29.6497 157.415 28.5151 157.446 27.373C157.425 26.2021 157.67 25.0417 158.161 23.9787C158.652 22.9157 159.378 21.9775 160.283 21.2344C162.185 19.5701 164.639 18.6747 167.165 18.7231C169.738 18.7449 172.246 19.5281 174.374 20.9739V18.3697C174.412 17.3113 174.283 16.2536 173.992 15.2353C173.636 14.3924 173.003 13.6966 172.197 13.2635C171.064 12.6272 169.775 12.3241 168.477 12.3892C167.332 12.3149 166.189 12.5696 165.184 13.1233C164.178 13.677 163.353 14.5066 162.803 15.5143L157.818 14.1936C160.044 10.064 163.864 7.99916 169.277 7.99916C171.035 7.96124 172.786 8.2352 174.448 8.80834C175.69 9.21359 176.808 9.93094 177.694 10.8917C178.385 11.6973 178.878 12.6526 179.136 13.682C179.431 15.2388 179.555 16.8231 179.508 18.4069V30.6841L184 30.6469ZM174.374 25.4105C172.465 23.78 170.056 22.8512 167.547 22.7783C166.225 22.734 164.935 23.1851 163.929 24.0432C163.457 24.4432 163.081 24.9444 162.83 25.5097C162.579 26.0749 162.458 26.6896 162.478 27.3079C162.466 27.8882 162.572 28.4648 162.791 29.0023C163.011 29.5398 163.337 30.0267 163.752 30.433C164.216 30.8643 164.763 31.1977 165.359 31.4134C165.955 31.6291 166.588 31.7227 167.221 31.6886C169.931 31.6093 172.5 30.4666 174.374 28.5077V25.4105Z" fill="#76777A"/>
<path d="M4.75277 13.7657L11.4773 35.3067H7.66395L0 22.0808L4.75277 13.7657Z" fill="#0071CE"/>
<path d="M22.9454 8.76196L27.7353 17.0398L5.70148 12.1103L7.60816 8.76196H22.9454Z" fill="#FF6C37"/>
<path d="M28.6934 18.7231L30.6093 22.0249L22.9919 35.3252H13.4026L28.6934 18.7231Z" fill="#3DAE2B"/>
</g>
<defs>
<clipPath id="clip0_916_1674">
<rect width="184" height="35.9294" fill="white" transform="translate(0 0.121094)"/>
</clipPath>
</defs>
</svg>
